<?xml version="1.0" encoding="utf-8"?>
<!-- Generator: Adobe Illustrator 25.1.0, SVG Export Plug-In . SVG Version: 6.00 Build 0)  -->
<svg version="1.1" id="Layer_1" xmlns="http://www.w3.org/2000/svg" xmlns:xlink="http://www.w3.org/1999/xlink" x="0px" y="0px"
	 viewBox="0 0 100 100" style="enable-background:new 0 0 100 100;" xml:space="preserve">
<style type="text/css">
	.st0{fill:#CD2027;}
	.st1{fill:#F1CECE;}
</style>
<g>
	<path class="st0" d="M20.22,41.28c-2.04-4.13,0-5.17,3.56-3.62s12.72,3.1,9.67-3.62c0,0-4.88-17.57,0.61-11.89s9.05,7.75,16.69,6.2
		c7.63-1.55,13.74,4.13,15.26,5.17c1.53,1.03,6.61-0.1,8.14-2.37c1.53-2.28,6.11,1.86,3.05,5.48s-3.54,9.82,1.03,11.37
		s7.11,2.58,7.11,2.58s0,2.07-3.56,3.62c-3.56,1.55-6.11,5.68-3.56,7.23s10.18,6.72,3.05,6.72c-7.12,0-7.63,0-3.56,3.1
		c4.07,3.1,2.54,4.13-1.53,4.13s-6.11,4.91-5.6,8.66c0.51,3.75-1.53,6.67-6.61,0.3s-6.61-0.86-13.74,0
		c-7.12,0.86-18.83-6.37-18.83-6.37s-7.63,0-4.07-4.13c3.56-4.13-13.23-1.03-13.23-1.03s10.18-4.65,12.72-7.75s-7.12-6.2-7.12-6.2
		s-1.53-2.91,4.07-4.3S20.22,41.28,20.22,41.28z"/>
	<path class="st1" d="M56.35,36.11c-5.72,0-10.3-0.78-12.21,2.33c0,0-2.29,3.88-5.34,5.04s-8.01-0.78-6.87,4.26s1.53,6.59,1.53,9.69
		c0,3.1-3.77,3.1-1.69,8.14c2.08,5.04,6.66,4.65,6.66,4.65s-8.4,0.39-9.35-5.62c-0.95-6.01,2.67-6.59,2.67-9.11
		c0-2.52-3.56-6.01-2.83-8.53s2.07-4.46,3.21-5.04c1.14-0.58,4.77-0.19,6.87-2.33c2.1-2.13,2.67-4.07,4.77-4.84
		c2.1-0.78,10.69,0,12.59,0C58.26,34.75,56.35,36.11,56.35,36.11z"/>
	<path class="st1" d="M71.25,53.57c1.3,3.31-0.85,6.85-2.15,8.66c0,0-1.36,1.01-1.32,3.04c0.04,2.03,1.57,5.17-1.52,5.65
		c-3.08,0.48-4.28-0.6-6.04,1.28c-1.29,1.38-0.43,2.33-3.72,2.27c-3.3-0.06-4.12-2.79-4.12-2.79s2,4.38,5.58,3.56
		c3.58-0.81,2.78-2.48,4.19-3.05s4.18,0.69,5.42-0.3c1.25-1,1.67-3.34,1.74-4.13c0.07-0.79-0.62-1.67,0.1-3.37
		c0.72-1.7,1.67-2.47,1.63-3.86c-0.04-1.39,1.4-6.18,0.97-7.28C71.58,52.15,71.25,53.57,71.25,53.57z"/>
	<g>
		<path class="st0" d="M18.18,8.2c-2.86-5.04,2.48-11.05,7.12-6.72c5.09,6.2,6.61,13.69,4.58,16.02C26.2,21.02,18.18,8.2,18.18,8.2z
			"/>
		<path class="st0" d="M57.63,11.06c1.58-4.27,7.83-3.98,7.56,1.04c-1.17,6.22-4.88,10.9-7.28,10.81
			C53.97,22.38,57.63,11.06,57.63,11.06z"/>
		<path class="st0" d="M81.08,19.86c2.11-2.97,6.88-1.4,5.64,2.42c-2.19,4.57-6.04,7.39-7.88,6.8
			C75.9,27.84,81.08,19.86,81.08,19.86z"/>
		<path class="st0" d="M97.3,69.76c3.25,1.59,2.56,6.64-1.36,6.06c-4.81-1.4-8.22-4.75-7.97-6.69C88.66,65.97,97.3,69.76,97.3,69.76
			z"/>
		<path class="st0" d="M32.17,90.11c-0.76,2.75-4.68,2.9-4.77-0.24c0.4-3.94,2.48-7.06,3.98-7.13
			C33.86,82.85,32.17,90.11,32.17,90.11z"/>
		<path class="st0" d="M16.74,90.62c-2.8,3.57-7.58,0.5-5.81-4.19c2.99-5.56,8.77-7.11,11.02-6.28
			C24.16,81.06,16.74,90.62,16.74,90.62z"/>
		<path class="st0" d="M2.7,43.73c-4.82-2.11-2.87-8.51,2.87-7.92c7.08,1.72,10.56,7.85,10.32,10.69
			C15.56,49.29,2.7,43.73,2.7,43.73z"/>
		<path class="st0" d="M75.25,94.97c2.34,1.15-0.29,4.83-3.13,4.41c-3.47-1.01-3.23-4.37-3.05-5.77
			C69.57,91.33,75.25,94.97,75.25,94.97z"/>
		<ellipse class="st0" cx="11.44" cy="58.39" rx="2.67" ry="2"/>
	</g>
</g>
</svg>
