<svg width="32" height="32" viewBox="0 0 32 32" fill="none" xmlns="http://www.w3.org/2000/svg">
<circle cx="16" cy="16" r="16" fill="white"/>
<path fill-rule="evenodd" clip-rule="evenodd" d="M22.1525 14.5701C21.6307 14.0483 21.6307 13.2023 22.1525 12.6805C22.6743 12.1586 23.5204 12.1586 24.0422 12.6805C24.564 13.2023 24.564 14.0483 24.0422 14.5701C23.5204 15.092 22.6743 15.092 22.1525 14.5701ZM17.6645 19.0581C17.2732 18.6668 17.2732 18.0322 17.6645 17.6409C18.0559 17.2495 18.6904 17.2495 19.0818 17.6409C19.4732 18.0322 19.4732 18.6668 19.0818 19.0581C18.6904 19.4495 18.0559 19.4495 17.6645 19.0581ZM24.7508 16.696C24.3595 16.3047 24.3595 15.6701 24.7508 15.2788C25.1422 14.8874 25.7767 14.8874 26.1681 15.2788C26.5595 15.6701 26.5595 16.3047 26.1681 16.696C25.7767 17.0874 25.1422 17.0874 24.7508 16.696ZM22.3887 19.0581C21.9974 18.6668 21.9974 18.0322 22.3887 17.6409C22.7801 17.2495 23.4146 17.2495 23.806 17.6409C24.1974 18.0322 24.1974 18.6668 23.806 19.0581C23.4146 19.4495 22.7801 19.4495 22.3887 19.0581ZM27.3491 18.8219C27.0882 18.561 27.0882 18.138 27.3491 17.8771C27.6101 17.6162 28.0331 17.6162 28.294 17.8771C28.5549 18.138 28.5549 18.561 28.294 18.8219C28.0331 19.0828 27.6101 19.0828 27.3491 18.8219ZM24.987 21.184C24.7261 20.9231 24.7261 20.5001 24.987 20.2392C25.248 19.9783 25.671 19.9783 25.9319 20.2392C26.1928 20.5001 26.1928 20.9231 25.9319 21.184C25.671 21.4449 25.248 21.4449 24.987 21.184ZM19.7904 16.9322C19.2686 16.4104 19.2686 15.5644 19.7904 15.0426C20.3122 14.5207 21.1583 14.5207 21.6801 15.0426C22.2019 15.5644 22.2019 16.4104 21.6801 16.9322C21.1583 17.4541 20.3122 17.4541 19.7904 16.9322ZM19.7904 12.208C19.2686 11.6862 19.2686 10.8402 19.7904 10.3184C20.3122 9.79655 21.1583 9.79655 21.6801 10.3184C22.2019 10.8402 22.2019 11.6862 21.6801 12.208C21.1583 12.7299 20.3122 12.7299 19.7904 12.208ZM17.4283 14.5701C16.9065 14.0483 16.9065 13.2023 17.4283 12.6805C17.9501 12.1586 18.7962 12.1586 19.318 12.6805C19.8398 13.2023 19.8398 14.0483 19.318 14.5701C18.7962 15.092 17.9501 15.092 17.4283 14.5701ZM12.6822 14.5701C12.1603 14.0483 12.1603 13.2023 12.6822 12.6805C13.204 12.1586 14.05 12.1586 14.5718 12.6805C15.0937 13.2023 15.0937 14.0483 14.5718 14.5701C14.05 15.092 13.204 15.092 12.6822 14.5701ZM8.19417 19.0581C7.80281 18.6668 7.80281 18.0322 8.19417 17.6409C8.58554 17.2495 9.22007 17.2495 9.61143 17.6409C10.0028 18.0322 10.0028 18.6668 9.61143 19.0581C9.22007 19.4495 8.58554 19.4495 8.19417 19.0581ZM15.2805 16.696C14.8891 16.3047 14.8891 15.6701 15.2805 15.2788C15.6718 14.8874 16.3064 14.8874 16.6977 15.2788C17.0891 15.6701 17.0891 16.3047 16.6977 16.696C16.3064 17.0874 15.6718 17.0874 15.2805 16.696ZM12.9184 19.0581C12.527 18.6668 12.527 18.0322 12.9184 17.6409C13.3097 17.2495 13.9443 17.2495 14.3356 17.6409C14.727 18.0322 14.727 18.6668 14.3356 19.0581C13.9443 19.4495 13.3097 19.4495 12.9184 19.0581ZM3.70618 18.8219C3.44527 18.561 3.44527 18.138 3.70618 17.8771C3.96709 17.6162 4.39011 17.6162 4.65102 17.8771C4.91193 18.138 4.91193 18.561 4.65102 18.8219C4.39011 19.0828 3.96709 19.0828 3.70618 18.8219ZM6.06828 21.184C5.80737 20.9231 5.80737 20.5001 6.06828 20.2392C6.32919 19.9783 6.75221 19.9783 7.01312 20.2392C7.27403 20.5001 7.27403 20.9231 7.01312 21.184C6.75221 21.4449 6.32919 21.4449 6.06828 21.184ZM15.5167 21.184C15.2558 20.9231 15.2558 20.5001 15.5167 20.2392C15.7776 19.9783 16.2006 19.9783 16.4615 20.2392C16.7224 20.5001 16.7224 20.9231 16.4615 21.184C16.2006 21.4449 15.7776 21.4449 15.5167 21.184ZM5.83207 16.696C5.44071 16.3047 5.44071 15.6701 5.83207 15.2788C6.22344 14.8874 6.85797 14.8874 7.24933 15.2788C7.6407 15.6701 7.6407 16.3047 7.24933 16.696C6.85797 17.0874 6.22344 17.0874 5.83207 16.696ZM10.3201 16.9322C9.79824 16.4104 9.79824 15.5644 10.3201 15.0426C10.8419 14.5207 11.6879 14.5207 12.2097 15.0426C12.7316 15.5644 12.7316 16.4104 12.2097 16.9322C11.6879 17.4541 10.8419 17.4541 10.3201 16.9322ZM10.3201 12.208C9.79824 11.6862 9.79824 10.8402 10.3201 10.3184C10.8419 9.79655 11.6879 9.79655 12.2097 10.3184C12.7316 10.8402 12.7316 11.6862 12.2097 12.208C11.6879 12.7299 10.8419 12.7299 10.3201 12.208ZM7.95796 14.5701C7.43614 14.0483 7.43614 13.2023 7.95796 12.6805C8.47978 12.1586 9.32582 12.1586 9.84764 12.6805C10.3695 13.2023 10.3695 14.0483 9.84764 14.5701C9.32582 15.092 8.47978 15.092 7.95796 14.5701Z" fill="#1D222A"/>
</svg>
