<svg width="24" height="24" viewBox="0 0 24 24" fill="none" xmlns="http://www.w3.org/2000/svg">
<path d="M15 10C16.6569 10 18 8.65685 18 7C18 5.34315 16.6569 4 15 4C13.3431 4 12 5.34315 12 7C12 8.65685 13.3431 10 15 10Z" stroke="white" stroke-linecap="round" stroke-linejoin="round"/>
<path d="M8 20C9.65685 20 11 18.6569 11 17C11 15.3431 9.65685 14 8 14C6.34315 14 5 15.3431 5 17C5 18.6569 6.34315 20 8 20Z" stroke="white" stroke-linecap="round" stroke-linejoin="round"/>
<path d="M1 7H12" stroke="white" stroke-linecap="round" stroke-linejoin="round"/>
<path d="M1 17H5" stroke="white" stroke-linecap="round" stroke-linejoin="round"/>
<path d="M18 7L23 7" stroke="white" stroke-linecap="round" stroke-linejoin="round"/>
<path d="M11 17L23 17" stroke="white" stroke-linecap="round" stroke-linejoin="round"/>
</svg>
