<svg width="32" height="32" viewBox="0 0 32 32" fill="none" xmlns="http://www.w3.org/2000/svg">
<circle cx="16" cy="16" r="16" fill="white"/>
<path d="M14.7763 11.7849V7.23779H6.36427C6.19375 7.23779 6.08008 7.35147 6.08008 7.52198V13.9447C6.08008 14.1152 6.19375 14.2289 6.36427 14.2289H9.60406V25.9376C9.60406 26.1081 9.71773 26.2218 9.88825 26.2218H15.1742C15.3447 26.2218 15.4584 26.1081 15.4584 25.9376V11.7849H14.7763Z" fill="#29AEFF"/>
<path d="M20.6306 5.76001H18.5844H13.0711C12.9005 5.76001 12.7869 5.87369 12.7869 6.0442V24.4598C12.7869 24.6304 12.9005 24.744 13.0711 24.744H18.357C18.5275 24.744 18.6412 24.6304 18.6412 24.4598V19.7991H20.6874C24.5524 19.7991 27.6785 16.673 27.6785 12.808C27.6785 8.88612 24.4956 5.76001 20.6306 5.76001Z" fill="#2761E7"/>
</svg>
