<svg width="32" height="32" viewBox="0 0 32 32" fill="none" xmlns="http://www.w3.org/2000/svg">
<path d="M32 16C32 7.16344 24.8366 0 16 0C7.16344 0 0 7.16344 0 16C0 24.8366 7.16344 32 16 32C24.8366 32 32 24.8366 32 16Z" fill="#3389FB"/>
<path d="M9.89764 11.8081C13.2679 8.5083 18.7323 8.5083 22.1025 11.8081L22.5082 12.2052C22.6767 12.3702 22.6767 12.6377 22.5082 12.8027L21.1206 14.1612C21.0364 14.2437 20.8998 14.2437 20.8155 14.1612L20.2573 13.6147C17.9061 11.3127 14.0941 11.3127 11.7429 13.6147L11.1451 14.2C11.0608 14.2825 10.9242 14.2825 10.84 14.2L9.45244 12.8415C9.28392 12.6765 9.28392 12.409 9.45244 12.244L9.89764 11.8081ZM24.9721 14.6177L26.207 15.8268C26.3755 15.9917 26.3755 16.2592 26.207 16.4242L20.6387 21.8762C20.4702 22.0412 20.197 22.0412 20.0285 21.8762C20.0285 21.8762 20.0285 21.8762 20.0285 21.8762L16.0764 18.0068C16.0343 17.9655 15.966 17.9655 15.9238 18.0068C15.9238 18.0068 15.9238 18.0068 15.9238 18.0068L11.9719 21.8762C11.8034 22.0412 11.5301 22.0412 11.3616 21.8762C11.3616 21.8762 11.3616 21.8762 11.3616 21.8762L5.79313 16.4242C5.62462 16.2592 5.62462 15.9917 5.79313 15.8267L7.02805 14.6176C7.19657 14.4526 7.46978 14.4526 7.6383 14.6176L11.5904 18.487C11.6325 18.5283 11.7008 18.5283 11.743 18.487C11.743 18.487 11.743 18.487 11.743 18.487L15.6949 14.6176C15.8634 14.4526 16.1366 14.4526 16.3051 14.6176C16.3051 14.6176 16.3051 14.6176 16.3051 14.6176L20.2573 18.487C20.2994 18.5283 20.3677 18.5283 20.4098 18.487L24.3619 14.6177C24.5304 14.4527 24.8036 14.4527 24.9721 14.6177Z" fill="white"/>
</svg>
