<svg width="10" height="6" viewBox="0 0 10 6" fill="none" xmlns="http://www.w3.org/2000/svg">
<path d="M1.42742 0.466386C1.13271 0.175318 0.657845 0.178267 0.366777 0.472974C0.0757084 0.767681 0.0786581 1.24255 0.373365 1.53361L1.42742 0.466386ZM4.9504 5L4.42337 5.53361C4.71549 5.82213 5.1853 5.82213 5.47742 5.53361L4.9504 5ZM9.52743 1.53361C9.82213 1.24255 9.82508 0.767681 9.53401 0.472974C9.24295 0.178268 8.76808 0.175318 8.47338 0.466386L9.52743 1.53361ZM0.373365 1.53361L4.42337 5.53361L5.47742 4.46639L1.42742 0.466386L0.373365 1.53361ZM5.47742 5.53361L9.52743 1.53361L8.47338 0.466386L4.42337 4.46639L5.47742 5.53361Z" fill="#B90D0D"/>
</svg>
