<svg width="32" height="32" viewBox="0 0 32 32" fill="none" xmlns="http://www.w3.org/2000/svg">
<circle cx="16" cy="16" r="16" fill="url(#paint0_linear)"/>
<path d="M12.3954 9.41916L10.2068 8.14714L16.1599 4.66675L22.1305 8.14714L19.9418 9.41916L16.1599 7.22846L12.3954 9.41916ZM23.6888 11.6099V14.1716L25.8774 12.8995V10.3378L23.6888 9.04815L21.5001 10.3202L23.6888 11.6099ZM13.9712 10.3378L16.1599 11.6099L18.3485 10.3378L16.1599 9.04815L13.9712 10.3378ZM22.1305 12.5285L19.9418 11.2565L16.1599 13.4472L12.3954 11.2565L10.2068 12.5285V15.0903L13.9712 17.281V21.6624L16.1599 22.9344L18.3485 21.6624V17.281L22.1305 15.0903V12.5285ZM23.6888 20.3903L19.9243 22.581V25.1428L25.8949 21.6624V14.7192L23.6888 16.0089V20.3903ZM19.9243 20.7613L22.113 19.4893V16.9099L19.9243 18.182V20.7613ZM13.9712 23.4997V26.0614L16.1599 27.3335L18.3485 26.0614V23.4997L16.1599 24.7717L13.9712 23.4997ZM6.4248 12.8995L8.61344 14.1716V11.6099L10.8021 10.3378L8.63095 9.04815L6.44231 10.3202V12.8995H6.4248ZM8.63095 16.0089L6.44231 14.7369V21.68L12.4129 25.1604V22.5987L8.63095 20.3903V16.0089ZM12.3954 18.1996L10.2068 16.9276V19.4893L12.3954 20.7613V18.1996Z" fill="#14151A"/>
<defs>
<linearGradient id="paint0_linear" x1="16" y1="0" x2="16" y2="32" gradientUnits="userSpaceOnUse">
<stop stop-color="#F0B90B"/>
<stop offset="1" stop-color="#FFD349"/>
</linearGradient>
</defs>
</svg>
