<svg width="61" height="61" viewBox="0 0 61 61" fill="none" xmlns="http://www.w3.org/2000/svg">
<g filter="url(#filter0_d)">
<path d="M50.5 29.16V31C50.4975 35.3128 49.101 39.5093 46.5187 42.9636C43.9363 46.4179 40.3066 48.9449 36.1707 50.1678C32.0349 51.3906 27.6145 51.2438 23.5689 49.7491C19.5234 48.2545 16.0693 45.4922 13.7219 41.8741C11.3745 38.256 10.2596 33.9761 10.5434 29.6726C10.8271 25.3691 12.4944 21.2726 15.2966 17.9941C18.0987 14.7156 21.8856 12.4307 26.0924 11.4803C30.2992 10.5298 34.7005 10.9646 38.64 12.72" stroke="#27AE60" stroke-width="4" stroke-linecap="round" stroke-linejoin="round"/>
<path d="M50.5 15L30.5 35.02L24.5 29.02" stroke="#27AE60" stroke-width="4" stroke-linecap="round" stroke-linejoin="round"/>
</g>
<defs>
<filter id="filter0_d" x="-1.5" y="-1" width="64" height="64" filterUnits="userSpaceOnUse" color-interpolation-filters="sRGB">
<feFlood flood-opacity="0" result="BackgroundImageFix"/>
<feColorMatrix in="SourceAlpha" type="matrix" values="0 0 0 0 0 0 0 0 0 0 0 0 0 0 0 0 0 0 127 0"/>
<feOffset/>
<feGaussianBlur stdDeviation="4"/>
<feColorMatrix type="matrix" values="0 0 0 0 0.152941 0 0 0 0 0.682353 0 0 0 0 0.376471 0 0 0 1 0"/>
<feBlend mode="normal" in2="BackgroundImageFix" result="effect1_dropShadow"/>
<feBlend mode="normal" in="SourceGraphic" in2="effect1_dropShadow" result="shape"/>
</filter>
</defs>
</svg>
