<svg width="32" height="32" viewBox="0 0 32 32" fill="none" xmlns="http://www.w3.org/2000/svg">
<circle cx="16" cy="16" r="16" fill="white"/>
<path d="M25.9201 5.63843L17.314 12.0165L18.9127 8.25768L25.9201 5.63843Z" fill="#E17726"/>
<path d="M6.08862 5.63843L14.6097 12.076L13.0875 8.25768L6.08862 5.63843Z" fill="#E27625"/>
<path d="M22.8245 20.4268L20.5369 23.9304L25.4352 25.2826L26.8299 20.5033L22.8245 20.4268Z" fill="#E27625"/>
<path d="M5.17847 20.5033L6.56463 25.2826L11.463 23.9304L9.18388 20.4268L5.17847 20.5033Z" fill="#E27625"/>
<path d="M11.1995 14.5083L9.83032 16.5663L14.6861 16.7874L14.5161 11.5574L11.1995 14.5083Z" fill="#E27625"/>
<path d="M20.8091 14.5082L17.433 11.4978L17.314 16.7873L22.1698 16.5662L20.8091 14.5082Z" fill="#E27625"/>
<path d="M11.4631 23.9307L14.3885 22.5105L11.8713 20.5376L11.4631 23.9307Z" fill="#E27625"/>
<path d="M17.6116 22.5105L20.537 23.9307L20.1288 20.5376L17.6116 22.5105Z" fill="#E27625"/>
<path d="M20.537 23.9307L17.6116 22.5105L17.8412 24.4154L17.8157 25.2148L20.537 23.9307Z" fill="#D5BFB2"/>
<path d="M11.4631 23.9307L14.1844 25.2148L14.1674 24.4154L14.3885 22.5105L11.4631 23.9307Z" fill="#D5BFB2"/>
<path d="M14.2354 19.2789L11.8032 18.5646L13.521 17.7737L14.2354 19.2789Z" fill="#233447"/>
<path d="M17.7646 19.2789L18.479 17.7737L20.2138 18.5646L17.7646 19.2789Z" fill="#233447"/>
<path d="M11.4632 23.9304L11.8884 20.4268L9.18408 20.5033L11.4632 23.9304Z" fill="#CC6228"/>
<path d="M20.1118 20.4268L20.537 23.9304L22.8246 20.5033L20.1118 20.4268Z" fill="#CC6228"/>
<path d="M22.1698 16.5662L17.314 16.7873L17.7647 19.279L18.479 17.7737L20.2139 18.5646L22.1698 16.5662Z" fill="#CC6228"/>
<path d="M11.8033 18.5646L13.5211 17.7737L14.2354 19.279L14.6861 16.7873L9.83032 16.5662L11.8033 18.5646Z" fill="#CC6228"/>
<path d="M9.83032 16.5662L11.8713 20.5376L11.8033 18.5646L9.83032 16.5662Z" fill="#E27525"/>
<path d="M20.2137 18.5646L20.1287 20.5376L22.1696 16.5662L20.2137 18.5646Z" fill="#E27525"/>
<path d="M14.6861 16.7871L14.2354 19.2788L14.8051 22.2212L14.9242 18.3434L14.6861 16.7871Z" fill="#E27525"/>
<path d="M17.3138 16.7871L17.0842 18.3348L17.1948 22.2212L17.7646 19.2788L17.3138 16.7871Z" fill="#E27525"/>
<path d="M17.7646 19.279L17.1948 22.2214L17.6115 22.5106L20.1287 20.5376L20.2138 18.5647L17.7646 19.279Z" fill="#F5841F"/>
<path d="M11.8032 18.5647L11.8713 20.5376L14.3885 22.5106L14.8052 22.2214L14.2354 19.279L11.8032 18.5647Z" fill="#F5841F"/>
<path d="M17.8157 25.2148L17.8412 24.4154L17.6286 24.2283H14.3715L14.1674 24.4154L14.1844 25.2148L11.4631 23.9307L12.4156 24.713L14.346 26.0482H17.6541L19.5845 24.713L20.537 23.9307L17.8157 25.2148Z" fill="#C0AC9D"/>
<path d="M17.6116 22.5106L17.1949 22.2214H14.8053L14.3886 22.5106L14.1675 24.4155L14.3716 24.2284H17.6286L17.8412 24.4155L17.6116 22.5106Z" fill="#161616"/>
<path d="M26.2772 12.4332L27.0001 8.91249L25.92 5.63843L17.6116 11.8039L20.8091 14.5082L25.3163 15.8263L26.3112 14.6612L25.8775 14.3466L26.5749 13.7173L26.0476 13.3006L26.7364 12.7818L26.2772 12.4332Z" fill="#763E1A"/>
<path d="M5 8.91249L5.73135 12.4332L5.26363 12.7818L5.95246 13.3006L5.4252 13.7173L6.12254 14.3466L5.68883 14.6612L6.68381 15.8263L11.1995 14.5082L14.3885 11.8039L6.08852 5.63843L5 8.91249Z" fill="#763E1A"/>
<path d="M25.3161 15.8264L20.809 14.5083L22.1696 16.5663L20.1287 20.5377L22.8245 20.5037H26.8299L25.3161 15.8264Z" fill="#F5841F"/>
<path d="M11.1993 14.5083L6.68369 15.8264L5.17847 20.5037H9.18388L11.8712 20.5377L9.83019 16.5663L11.1993 14.5083Z" fill="#F5841F"/>
<path d="M17.3139 16.7871L17.6116 11.8038L18.9127 8.25757H13.0874L14.3885 11.8038L14.6862 16.7871L14.7967 18.3519L14.8052 22.2212H17.1949L17.2034 18.3519L17.3139 16.7871Z" fill="#F5841F"/>
</svg>
