<svg width="34" height="34" viewBox="0 0 34 34" fill="none" xmlns="http://www.w3.org/2000/svg">
<rect x="0.5" y="0.5" width="33" height="33" rx="16.5" stroke="#333333"/>
<path d="M23 19.6667V14.3333C22.9998 14.0995 22.938 13.8699 22.821 13.6675C22.704 13.465 22.5358 13.2969 22.3333 13.18L17.6667 10.5133C17.464 10.3963 17.234 10.3347 17 10.3347C16.766 10.3347 16.536 10.3963 16.3333 10.5133L11.6667 13.18C11.4642 13.2969 11.296 13.465 11.179 13.6675C11.062 13.8699 11.0002 14.0995 11 14.3333V19.6667C11.0002 19.9005 11.062 20.1301 11.179 20.3326C11.296 20.535 11.4642 20.7031 11.6667 20.82L16.3333 23.4867C16.536 23.6037 16.766 23.6653 17 23.6653C17.234 23.6653 17.464 23.6037 17.6667 23.4867L22.3333 20.82C22.5358 20.7031 22.704 20.535 22.821 20.3326C22.938 20.1301 22.9998 19.9005 23 19.6667Z" stroke="#828282" stroke-width="1.5" stroke-linecap="round" stroke-linejoin="round"/>
</svg>
