<svg version="1" xmlns="http://www.w3.org/2000/svg" width="1365.333" height="1365.333" viewBox="0 0 1024.000000 1024.000000"><path d="M496.5 34c-2.7.4-6.8 1-9 1.3-3.3.5-11.8 2.2-20.7 4.2-.9.2-5.8 1.8-11 3.6-63.7 21.8-105.7 75.5-117.4 149.9-1.8 12-2.7 46-1.4 56 .5 3.6 1.1 8.5 1.5 11 4.6 36.2 24.1 83.7 48.3 117.5 40.2 56 92.1 84.2 146.2 79.2 25.4-2.3 52.5-13.2 73.5-29.6 2.2-1.7 5.4-4.1 7-5.3 6.7-5 28.5-28 36-38 18.2-24.3 32.2-50.9 42.3-80.3 1.9-5.6 5.9-19.5 6.7-23.3.2-.9.8-3.7 1.4-6.2.5-2.5 1.2-6.1 1.6-8 .3-1.9.7-4.6 1-6 1.5-8.3 1.9-14.5 2-31.5 0-18.2-.5-26-2.5-39-7.8-49.6-30.5-90.9-65.6-119.1-5.1-4.1-9.5-7.4-9.7-7.4-.3 0-2.9-1.6-5.9-3.6-14.8-9.8-41.2-19.7-62.5-23.4-3.5-.5-7.5-1.3-9-1.6-4.3-.9-47.2-1.2-52.8-.4zm39 83.5c18.7 2.1 31.3 6.6 44.5 15.5 26 17.7 41.5 54.9 40.4 97-.3 14.5-.9 18.8-4.3 32.4-10.8 42.3-36.3 82.2-64.3 100.3-26.9 17.4-52 13.2-79.1-13.3-25.5-25.1-46.3-67.3-51.6-104.9-1-7-.7-33 .4-39.5 6.6-38.2 23.6-64.6 50.1-77.8 5.7-2.9 14.8-6.2 20.9-7.7 10.1-2.5 30.7-3.5 43-2zM210.8 562.5c-.2.1-4 .5-8.6.9-4.6.3-9.3.8-10.5 1.1-1.2.2-3.5.6-5.2.9-32.2 4.9-72.5 22.2-99.1 42.6-48.9 37.6-77.8 85.7-85.9 143.5-1.3 8.7-1.4 47.1-.3 49.1.3.5.8 3.2 1.2 6.1 2.1 18.2 9.8 42.9 19 61.3 25.6 51.4 72.3 90.3 131.1 109.3 19.4 6.3 30.8 8.7 57.5 12.3 2.5.3 14.6.7 27 .9 25.3.3 38.5-1.2 59-6.5 6.3-1.6 12.4-3.2 13.4-3.5 5.6-1.4 25.6-9.4 36.4-14.6 25.8-12.2 47-25.6 76.5-48.2 5.6-4.3 11.6-9.1 13.2-10.5 1.7-1.5 5.5-4.7 8.5-7.2 16.6-13.6 35.4-31.4 70.4-66.9 75.2-76.1 87.6-88.2 110.8-108.2 11.3-9.8 12.2-10.6 19.8-16.4 3.6-2.8 6.7-5.3 7-5.6 1.4-1.7 25-18.3 34.6-24.4 9.9-6.2 28.5-16.2 35.9-19.2 14.1-5.8 31.4-10.7 42.2-12.1 10.8-1.3 40.1-.6 50.3 1.2 1.4.3 4.3.7 6.4 1.1 2.1.3 7.8 1.5 12.5 2.6 42.7 10.5 76 35.9 93.4 71.2 4.4 9.1 9.4 23.7 10.3 30.5.3 2.6 1 6.9 1.4 9.7 1.2 7.3.4 27.9-1.4 36.4-8.5 39.4-37.1 74.5-75.9 93-11.2 5.4-24.8 10-34.4 11.7-1.3.2-3.5.7-5 1-6.5 1.3-32.2 1.6-40.8.4-13-1.7-12.6-1.7-17-2.5-29-5.3-56.6-16.2-76.6-30-5.7-4-16.6-12.9-18.5-15.2-1-1.2-1.4-1.2-2.5 0-20.7 21-56.5 58-56.6 58.5-.4 1.2.8 2.4 9.3 9.7 10.9 9.4 10.9 9.4 21 16.3 9.9 6.7 23.3 14.6 30.9 18.1 17.2 8 23.6 10.6 38 15.2 15.8 5.1 32.3 8.8 54.5 12.3 10.1 1.6 18.3 2.1 36.5 2.1 18.1 0 23.7-.4 34.5-2.1 48-7.8 91.8-30.1 126-64.4 18.1-18.1 30-34.5 41.3-56.6 6.5-12.6 14-32.8 16.1-42.9.4-1.7.9-4.1 1.2-5.5 4-18.8 5.2-46.6 2.8-66.5-5.4-45.4-25.6-87.4-57.2-119.3-11.8-11.9-14.4-14.1-26.3-23-28.4-21-69.8-38.1-105.4-43.6-15-2.3-15.5-2.4-26-3.2-22.2-1.9-49.7-.6-67.5 3.1-1.5.3-8.6 1.9-9 2-.3.1-2.1.5-4 .9-5 1.1-28.4 9-36 12.1-33.9 14-74.6 40.6-114 74.4-18.8 16.1-30.4 27.3-89 86.1-34.4 34.5-67.2 67-73 72.1-5.7 5.2-11.3 10.2-12.5 11.3-4.5 4.1-28.5 23.6-35.5 28.9-4.1 3.1-8 6.1-8.7 6.7-2.2 1.9-26.8 17.8-31.8 20.5-25.6 14.3-45.1 21.3-69.5 25-7.4 1.1-33.1.5-44-1.1-2.5-.3-5.6-.8-7-.9-12.9-1.7-33-7.8-46.2-13.9-34-15.7-59.3-43.8-69.8-77.2-1.2-3.8-2.4-8-2.6-9.4-.2-1.4-.9-5-1.6-8-1.6-8.4-1.7-29.4-.2-38.5 5.7-32.3 25.6-63 55-84.2 6.4-4.7 15.2-10.1 19.9-12.2 1.1-.5 4.5-2 7.5-3.4 10.3-4.6 25.3-8.8 37.5-10.3 11.5-1.5 34.2-.9 45.5 1 1.4.3 4.1.7 6 1 34 5.1 68 20.1 92.3 40.8l6.7 5.7 18.4-18.7c39.6-40.3 39.9-40.6 38.9-42.2-1.9-3-22-19.2-32.8-26.4-10.4-6.9-27.9-16.5-39-21.3-18.5-8.1-43-15.5-63.5-19.3-3-.6-6.4-1.2-7.5-1.4-1.1-.2-4.2-.7-7-1-2.7-.4-6.4-1-8.1-1.2-1.7-.3-4.8-.7-7-1-4.5-.5-37.1-1.3-37.6-.9z"/></svg>