<svg width="34" height="34" viewBox="0 0 34 34" fill="none" xmlns="http://www.w3.org/2000/svg">
<rect x="0.5" y="0.5" width="33" height="33" rx="16.5" stroke="#333333"/>
<path d="M13.6663 23.6666H11.6663C11.3127 23.6666 10.9736 23.5261 10.7235 23.2761C10.4735 23.026 10.333 22.6869 10.333 22.3333V17.6666C10.333 17.313 10.4735 16.9738 10.7235 16.7238C10.9736 16.4737 11.3127 16.3333 11.6663 16.3333H13.6663M18.333 14.9999V12.3333C18.333 11.8028 18.1223 11.2941 17.7472 10.919C17.3721 10.544 16.8634 10.3333 16.333 10.3333L13.6663 16.3333V23.6666H21.1863C21.5079 23.6702 21.8199 23.5575 22.0649 23.3493C22.31 23.141 22.4715 22.8512 22.5197 22.5333L23.4397 16.5333C23.4687 16.3422 23.4558 16.147 23.4019 15.9614C23.348 15.7758 23.2544 15.6041 23.1276 15.4583C23.0008 15.3124 22.8437 15.1959 22.6674 15.1167C22.4911 15.0376 22.2996 14.9977 22.1063 14.9999H18.333Z" stroke="#828282" stroke-width="1.5" stroke-linecap="round" stroke-linejoin="round"/>
</svg>
