<svg width="32" height="32" viewBox="0 0 32 32" fill="none" xmlns="http://www.w3.org/2000/svg">
<g clip-path="url(#clip0)">
<path d="M16.0016 32.0032C24.8391 32.0032 32.0032 24.8391 32.0032 16.0016C32.0032 7.16417 24.8391 0 16.0016 0C7.16417 0 0 7.16417 0 16.0016C0 24.8391 7.16417 32.0032 16.0016 32.0032Z" fill="#3375BB"/>
<path d="M16.0017 7.63058L16.4394 7.06093C16.3134 6.96411 16.159 6.91162 16.0001 6.91162C15.8412 6.91162 15.6867 6.96411 15.5608 7.06093L16.0017 7.63058ZM23.5262 9.84158H24.2439C24.2451 9.74637 24.2275 9.65185 24.1921 9.56348C24.1566 9.47511 24.104 9.39464 24.0373 9.32671C23.9706 9.25879 23.891 9.20476 23.8033 9.16773C23.7156 9.13071 23.6214 9.11144 23.5262 9.11102V9.84158ZM16.0017 25.2124L15.6026 25.811C15.7202 25.8897 15.8585 25.9318 16.0001 25.9318C16.1416 25.9318 16.2799 25.8897 16.3975 25.811L16.0017 25.2124ZM8.48363 9.84158V9.12068C8.38841 9.12109 8.29421 9.14037 8.20649 9.17739C8.11876 9.21441 8.03924 9.26844 7.97251 9.33637C7.90578 9.40429 7.85317 9.48477 7.81771 9.57314C7.78226 9.66151 7.76466 9.75603 7.76593 9.85124L8.48363 9.84158ZM15.564 8.19701C18.8209 10.7202 22.551 10.5593 23.5294 10.5593V9.12068C22.5156 9.12068 19.2683 9.24941 16.449 7.06093L15.564 8.19701ZM22.8117 9.82871C22.757 13.1629 22.6154 15.5155 22.345 17.2567C22.0747 18.9978 21.7014 20.0148 21.209 20.7421C20.7166 21.4695 20.0858 21.9426 19.1621 22.4929C18.2384 23.0432 17.0573 23.6547 15.6026 24.617L16.4136 25.811C17.7911 24.8938 18.9368 24.308 19.912 23.7255C20.8946 23.1904 21.7473 22.4454 22.4094 21.5435C23.0531 20.578 23.494 19.2906 23.7772 17.4755C24.0604 15.6604 24.2052 13.2176 24.2599 9.85124L22.8117 9.82871ZM16.4136 24.617C14.9686 23.6515 13.7907 23.0529 12.8734 22.4961C11.9562 21.9393 11.3254 21.4952 10.8298 20.7421C10.3342 19.989 9.93188 18.9881 9.6551 17.2567C9.37832 15.5252 9.25603 13.1629 9.20132 9.82871L7.76593 9.85124C7.82065 13.2176 7.96869 15.6668 8.24869 17.4755C8.52868 19.2842 8.95672 20.5715 9.61326 21.5435C10.2722 22.4459 11.1229 23.1911 12.1043 23.7255C13.0698 24.308 14.2252 24.8938 15.6026 25.811L16.4136 24.617ZM8.48363 10.5593C9.44913 10.5593 13.1824 10.7202 16.4394 8.19701L15.5608 7.06093C12.7351 9.24941 9.48775 9.12068 8.48041 9.12068L8.48363 10.5593Z" fill="white"/>
</g>
<defs>
<clipPath id="clip0">
<rect width="32" height="32" fill="white"/>
</clipPath>
</defs>
</svg>
