<svg width="18" height="17" viewBox="0 0 18 17" fill="none" xmlns="http://www.w3.org/2000/svg">
<path fill-rule="evenodd" clip-rule="evenodd" d="M14 0.5C15.5 0.5 16 0.999996 16 2.5L16 4.5C17.1046 4.5 18 5.39543 18 6.5L18 13.5C18 15.5 17 16.5 14.999 16.5H3C1 16.5 0 15.5 0 13.5L4.76837e-07 3.5C4.76837e-07 2 1.5 0.5 3 0.5L14 0.5ZM2 3.5C2 2.94772 2.44772 2.5 3 2.5L16 2.5L16 4.5L3 4.5C2.44772 4.5 2 4.05229 2 3.5ZM14 12.5C15 12.5 16.001 11.5 16 10.5C15.999 9.5 15 8.5 14 8.5C13 8.5 12 9.5 12 10.5C12 11.5 13 12.5 14 12.5Z" fill="#B90D0D"/>
</svg>
